<svg width="247" height="247" viewBox="0 0 247 247" fill="none" xmlns="http://www.w3.org/2000/svg">
<path d="M94.8902 138.365L110.026 123.23L94.8902 108.094V86.6911H73.4876L58.3518 71.5552L43.2157 86.6911H21.8133V108.094L6.67725 123.23L21.8133 138.365V159.768H43.2157L58.3518 174.904L73.4876 159.768H94.8902V138.365Z" stroke="#FFFCEE" stroke-width="1.03" stroke-miterlimit="10"/>
<path d="M211.963 247H35.0369C15.6865 247 0 231.313 0 211.963V35.0369C0 15.6865 15.6865 0 35.0369 0H211.963C231.313 0 247 15.6865 247 35.0369V211.963C247 231.313 231.313 247 211.963 247Z" fill="#048E39"/>
<path d="M201.662 158.167L234.667 125.152L201.662 92.1471V45.4679H154.973L121.969 12.4631L88.964 45.4679H42.2848V92.1471L9.27002 125.152L42.2848 158.167V204.846H88.964L121.969 237.85L154.973 204.846H201.662V158.167Z" stroke="#FFFCEE" stroke-width="8" stroke-miterlimit="10"/>
<path d="M179.269 109.575L183.994 124.111L171.631 115.131L159.268 124.111H159.258L163.983 109.575L151.63 100.606L151.62 100.596H166.906L171.601 86.1507L171.621 86.0806L171.631 86.0605V86.0906L176.346 100.596H191.632L179.269 109.575Z" fill="#F6E7B9"/>
<path d="M171.622 106.963L183.915 124.131L171.572 115.131L171.622 106.963Z" fill="#F6E7B9"/>
<path d="M100.566 189.299C95.8312 185.996 92.1073 182.802 89.3845 179.719C86.6616 176.636 84.6695 173.463 83.4082 170.199C82.1469 166.926 81.366 163.352 81.0657 159.458C80.7653 155.564 80.6152 151.129 80.6152 146.134V80.4747C81.8165 82.5068 83.228 84.1285 84.8397 85.3498C86.4513 86.5711 88.0832 87.6523 89.745 88.5933C91.2465 89.3841 92.6279 90.245 93.8892 91.186C95.1505 92.1269 96.1616 93.2882 96.9325 94.6796C97.7033 96.0711 98.0836 97.873 98.0836 100.085L98.1437 156.555C98.1437 159.408 98.7243 162.171 99.8955 164.844C101.057 167.516 102.919 169.498 105.471 170.82C107.053 171.611 108.605 172.001 110.146 172.001C111.688 172.001 113.19 171.611 114.771 170.82C117.364 169.508 119.236 167.516 120.377 164.844C121.518 162.181 122.099 159.418 122.099 156.555V114.961C122.099 111.017 122.289 106.672 122.659 101.937C123.6 90.8856 126.584 82.8872 131.619 77.932C134.061 75.7197 136.824 73.9478 139.908 72.6365C143.932 70.9447 147.706 70.1038 151.24 70.1038C154.773 70.1038 157.837 70.8045 160.309 72.186C161.32 72.7466 161.991 73.2571 162.311 73.7076C162.632 74.1581 162.832 74.5685 162.902 74.9489C158.918 74.9489 155.784 75.3593 153.492 76.1902C151.91 76.7908 150.299 77.6717 148.647 78.8429C144.933 81.5158 142.45 85.2297 141.209 90.0047C140.118 94.099 139.577 99.6248 139.577 106.572C139.617 112.248 139.637 125.983 139.637 147.766C139.637 152.611 138.486 157.015 136.204 160.979C133.911 164.944 130.648 168.167 126.393 170.64C121.548 173.493 116.643 176.356 111.688 179.209C108.875 180.71 106.463 182.252 104.47 183.833C102.478 185.415 101.177 187.237 100.576 189.299" fill="#FFFCEE"/>
</svg>
