<svg width="732" height="247" viewBox="0 0 732 247" fill="none" xmlns="http://www.w3.org/2000/svg">
<path d="M94.79 138.22L109.91 123.1L94.79 107.98V86.6H73.4099L58.29 71.48L43.1699 86.6H21.79V107.98L6.66992 123.1L21.79 138.22V159.6H43.1699L58.29 174.72L73.4099 159.6H94.79V138.22Z" stroke="#FFFCEE" stroke-width="1.03" stroke-miterlimit="10"/>
<path d="M211.74 246.74H35C15.67 246.74 0 231.07 0 211.74V35C0 15.67 15.67 0 35 0H211.74C231.07 0 246.74 15.67 246.74 35V211.74C246.74 231.07 231.07 246.74 211.74 246.74Z" fill="#048E39"/>
<path d="M201.45 158L234.42 125.02L201.45 92.05V45.42H154.81L121.84 12.45L88.8701 45.42H42.24V92.05L9.26001 125.02L42.24 158V204.63H88.8701L121.84 237.6L154.81 204.63H201.45V158Z" stroke="#FFFCEE" stroke-width="8" stroke-miterlimit="10"/>
<path d="M179.08 109.46L183.8 123.98L171.45 115.01L159.1 123.98H159.09L163.81 109.46L151.47 100.5L151.46 100.49H166.73L171.42 86.06L171.44 85.99L171.45 85.97V86L176.16 100.49H191.43L179.08 109.46Z" fill="#F6E7B9"/>
<path d="M171.44 106.85L183.72 124L171.39 115.01L171.44 106.85Z" fill="#F6E7B9"/>
<path d="M100.46 189.1C95.73 185.8 92.01 182.61 89.29 179.53C86.57 176.45 84.5801 173.28 83.3201 170.02C82.0601 166.75 81.28 163.18 80.98 159.29C80.68 155.4 80.53 150.97 80.53 145.98V80.39C81.73 82.42 83.14 84.04 84.75 85.26C86.36 86.48 87.9901 87.5601 89.6501 88.5001C91.1501 89.2901 92.53 90.15 93.79 91.09C95.05 92.03 96.0601 93.19 96.8301 94.58C97.6001 95.97 97.98 97.77 97.98 99.98L98.04 156.39C98.04 159.24 98.62 162 99.79 164.67C100.95 167.34 102.81 169.32 105.36 170.64C106.94 171.43 108.49 171.82 110.03 171.82C111.57 171.82 113.07 171.43 114.65 170.64C117.24 169.33 119.11 167.34 120.25 164.67C121.39 162.01 121.97 159.25 121.97 156.39V114.84C121.97 110.9 122.16 106.56 122.53 101.83C123.47 90.79 126.45 82.8 131.48 77.85C133.92 75.64 136.68 73.8701 139.76 72.5601C143.78 70.8701 147.55 70.03 151.08 70.03C154.61 70.03 157.67 70.73 160.14 72.11C161.15 72.67 161.82 73.1801 162.14 73.6301C162.46 74.0801 162.66 74.4901 162.73 74.8701C158.75 74.8701 155.62 75.28 153.33 76.11C151.75 76.71 150.14 77.59 148.49 78.76C144.78 81.43 142.3 85.14 141.06 89.91C139.97 94 139.43 99.52 139.43 106.46C139.47 112.13 139.49 125.85 139.49 147.61C139.49 152.45 138.34 156.85 136.06 160.81C133.77 164.77 130.51 167.99 126.26 170.46C121.42 173.31 116.52 176.17 111.57 179.02C108.76 180.52 106.35 182.06 104.36 183.64C102.37 185.22 101.07 187.04 100.47 189.1" fill="#FFFCEE"/>
<path d="M323.93 208.13C317.2 203.43 311.89 198.88 308.02 194.51C304.15 190.13 301.31 185.61 299.52 180.96C297.73 176.31 296.62 171.22 296.19 165.69C295.76 160.16 295.55 153.84 295.55 146.73V53.3501C297.26 56.2401 299.26 58.5501 301.56 60.2801C303.86 62.0201 306.18 63.5501 308.53 64.8901C310.67 66.0101 312.63 67.2401 314.42 68.5801C316.21 69.9201 317.65 71.5701 318.75 73.5501C319.84 75.5301 320.39 78.0901 320.39 81.2501L320.47 161.56C320.47 165.62 321.3 169.55 322.96 173.34C324.62 177.14 327.26 179.97 330.89 181.84C333.13 182.96 335.35 183.52 337.54 183.52C339.73 183.52 341.87 182.96 344.11 181.84C347.8 179.97 350.46 177.14 352.09 173.34C353.72 169.55 354.54 165.62 354.54 161.56V102.41C354.54 96.8001 354.81 90.6301 355.34 83.8901C356.67 68.1801 360.92 56.8001 368.08 49.7401C371.55 46.5901 375.48 44.0801 379.86 42.2101C385.58 39.8101 390.95 38.6001 395.97 38.6001C400.99 38.6001 405.35 39.5901 408.87 41.5601C410.31 42.3601 411.26 43.0801 411.72 43.7201C412.17 44.3601 412.45 44.9501 412.56 45.4901C406.9 45.4901 402.43 46.0801 399.17 47.2501C396.93 48.1101 394.63 49.3601 392.28 51.0201C386.99 54.8201 383.46 60.1001 381.7 66.8901C380.15 72.7201 379.37 80.5701 379.37 90.4501C379.42 98.5201 379.45 118.05 379.45 149.04C379.45 155.93 377.82 162.2 374.56 167.84C371.3 173.48 366.65 178.06 360.61 181.59C353.72 185.65 346.74 189.71 339.69 193.77C335.68 195.91 332.26 198.1 329.43 200.34C326.6 202.58 324.75 205.17 323.9 208.11" fill="#1E1E1C"/>
<path d="M467.17 195.07C461.56 195.07 457.16 193.66 453.99 190.82C450.81 187.99 448.58 184.12 447.3 179.2C445.16 183.96 442.32 187.79 438.76 190.7C435.21 193.61 430.62 195.07 425.01 195.07C421.11 195.07 417.41 194.34 413.91 192.87C410.41 191.4 407.24 189.2 404.41 186.26C401.26 182.9 398.89 178.94 397.32 174.4C395.74 169.86 394.96 165.23 394.96 160.53C394.96 157.7 395.25 154.89 395.84 152.11C397.76 143.99 401.29 137.39 406.42 132.31C411.55 127.23 417.61 122.8 424.62 119.01C428.2 117.03 431.99 115.05 436 113.08C442.89 109.82 449.4 106.18 455.52 102.14C461.64 98.1001 466.03 93.2002 468.71 87.4302V166.38C468.71 169.11 468.92 171.35 469.35 173.11C469.78 174.87 470.64 176.18 471.95 177.04C473.26 177.9 475.17 178.32 477.68 178.32C480.19 178.32 482.41 177.56 484.17 176.03C485.93 174.51 487.3 172.6 488.26 170.3C489.22 168 489.78 165.6 489.94 163.09H497.15C496.29 170.14 494.69 175.76 492.34 179.92C490.42 183.5 488.06 186.52 485.29 188.98C480.8 193.04 474.76 195.07 467.18 195.07M431.83 178.56C433.27 178.56 434.85 178.16 436.56 177.36C439.23 175.97 441.11 173.91 442.21 171.19C443.31 168.46 443.85 165.63 443.85 162.69V120.21L439.52 122.69C433 126.43 428.33 130.41 425.49 134.63C421.8 140.13 419.96 147.69 419.96 157.31C419.96 165.22 421.67 171.23 425.09 175.35C426.85 177.49 429.1 178.55 431.82 178.55" fill="#1E1E1C"/>
<path d="M513.5 194.91C504.63 194.91 498.42 192.46 494.86 187.58C491.3 182.69 489.53 176.21 489.53 168.14V112.11H479.67L481.35 108.34C483.22 104.97 485.94 103.29 489.52 103.29V99.6C489.52 93.46 492.33 88.65 497.94 85.17L500.59 83.73C503.42 82.23 505.99 80.63 508.28 78.92C510.58 77.21 512.61 74.81 514.37 71.71V103.29H526.63L524.95 106.98C523.13 110.4 520.46 112.11 516.93 112.11H514.36V166.21C514.36 170.81 514.99 173.95 516.24 175.63C517.5 177.31 519.86 178.15 523.33 178.15C526.8 178.15 529.62 176.69 531.79 173.78C533.95 170.87 535.22 167.25 535.6 162.92H542.81C541.05 175.69 536.85 184.53 530.23 189.45C525.42 193.09 519.84 194.9 513.48 194.9" fill="#1E1E1C"/>
<path d="M606.88 195.07C601.27 195.07 596.87 193.66 593.69 190.82C590.51 187.99 588.28 184.12 587 179.2C584.86 183.96 582.02 187.79 578.46 190.7C574.91 193.61 570.32 195.07 564.71 195.07C560.81 195.07 557.11 194.34 553.61 192.87C550.11 191.4 546.94 189.2 544.11 186.26C540.96 182.9 538.59 178.94 537.02 174.4C535.44 169.86 534.66 165.23 534.66 160.53C534.66 157.7 534.95 154.89 535.54 152.11C537.47 143.99 540.99 137.39 546.12 132.31C551.25 127.23 557.31 122.8 564.32 119.01C567.9 117.03 571.69 115.05 575.7 113.08C582.59 109.82 589.1 106.18 595.22 102.14C601.34 98.1001 605.73 93.2002 608.4 87.4302V166.38C608.4 169.11 608.61 171.35 609.04 173.11C609.47 174.87 610.34 176.18 611.64 177.04C612.95 177.9 614.86 178.32 617.37 178.32C619.88 178.32 622.1 177.56 623.86 176.03C625.62 174.51 626.99 172.6 627.95 170.3C628.91 168 629.47 165.6 629.63 163.09H636.84C635.98 170.14 634.38 175.76 632.03 179.92C630.11 183.5 627.75 186.52 624.98 188.98C620.49 193.04 614.45 195.07 606.87 195.07M571.52 178.56C572.96 178.56 574.54 178.16 576.25 177.36C578.92 175.97 580.81 173.91 581.9 171.19C583 168.46 583.54 165.63 583.54 162.69V120.21L579.21 122.69C572.69 126.43 568.01 130.41 565.18 134.63C561.49 140.13 559.65 147.69 559.65 157.31C559.65 165.22 561.36 171.23 564.78 175.35C566.54 177.49 568.79 178.55 571.51 178.55" fill="#1E1E1C"/>
<path d="M654.49 180.24C654.49 183.44 653.93 186.04 652.81 188.01C651.69 189.99 650.25 191.63 648.48 192.94C646.71 194.25 644.76 195.49 642.63 196.67C640.23 197.95 637.89 199.46 635.62 201.2C633.35 202.94 631.33 205.25 629.57 208.13V151.14C629.89 142.32 632.12 135.15 636.26 129.62C640.4 124.09 644.93 119.8 649.85 116.76C652.58 115 655.67 113.18 659.15 111.31C663.53 109.01 667.56 106.57 671.25 103.98C674.94 101.39 677.29 98.57 678.3 95.52C688.35 102.47 694.98 109.29 698.22 116C701.45 122.71 703.07 131.06 703.07 141.05C703.18 146.07 703.23 151.12 703.23 156.2V166.3C703.23 169.03 703.44 171.27 703.87 173.03C704.3 174.79 705.15 176.1 706.43 176.96C707.71 177.81 709.64 178.24 712.2 178.24C714.76 178.24 716.92 177.48 718.65 175.96C720.39 174.44 721.74 172.53 722.7 170.23C723.66 167.93 724.25 165.53 724.46 163.02H731.67C730.71 170.07 729.1 175.69 726.86 179.85C724.93 183.43 722.6 186.45 719.85 188.91C717.1 191.37 713.9 193.02 710.27 193.88C707.28 194.58 704.31 194.92 701.37 194.92C697.73 194.92 694.36 194.34 691.23 193.2C688.11 192.05 685.58 190.19 683.66 187.63C680.13 182.71 678.37 176.25 678.37 168.23V135.53C678.37 132.7 677.78 129.95 676.61 127.27C675.44 124.6 673.56 122.62 671 121.34C669.5 120.54 667.95 120.14 666.35 120.14C664.91 120.14 663.36 120.54 661.7 121.34C659.14 122.62 657.28 124.6 656.13 127.27C654.98 129.94 654.41 132.69 654.41 135.53L654.49 160.86V180.26V180.24Z" fill="#1E1E1C"/>
</svg>
